# xmcd CD database file
#
# Track frame offsets:
#	150
#	36919
#	76705
#	108407
#	130387
#	160172
#	182770
#	204848
#	236755
#	269072
#
# Disc length: 3928 seconds
#
# Revision: 0
# Processed by: cddbd v1.4PL0 Copyright (c) Steve Scherf et al.
# Submitted via: CDex 1.50
#
DISCID=840f560a
DTITLE=Bill Evans - Jazz Milestones
DYEAR=1900
DGENRE=Jazz
TTITLE0=On green dolphin street
TTITLE1=All the things you are
TTITLE2=Waltz for Debby (take 2)
TTITLE3=Some day my prince will come
TTITLE4=Milestones
TTITLE5=Polka dots and Moonbeams
TTITLE6=When I fall in love
TTITLE7=So what
TTITLE8=My Romance (Take 1)
TTITLE9=Emily
EXTD=
EXTT0=
EXTT1=
EXTT2=
EXTT3=
EXTT4=
EXTT5=
EXTT6=
EXTT7=
EXTT8=
EXTT9=
PLAYORDER=
